<svg width="165" height="71" viewBox="0 0 165 71" fill="none" xmlns="http://www.w3.org/2000/svg">
<path fill-rule="evenodd" clip-rule="evenodd" d="M49.9506 0C50.8932 0.156863 51.5215 0.784313 51.6786 1.72549C51.7282 2.12105 51.7465 2.50103 51.7631 2.84577C51.7991 3.5947 51.8272 4.17732 52.1499 4.39215C52.9354 10.1961 51.9928 16.3137 49.9506 23.0588C49.7935 23.2157 49.7935 23.2157 49.7935 23.3725V23.5294C49.6365 24.4706 49.0081 24.6274 48.3797 24.7843C48.0655 24.9412 47.7514 25.5686 47.7514 26.3529C47.5943 27.451 47.5943 28.549 47.5943 29.6471C47.4372 35.2941 47.4372 41.098 47.5943 47.0588C47.5943 48.1568 47.6335 49.2549 47.6728 50.3529C47.7121 51.451 47.7514 52.549 47.7514 53.647C47.7514 54.2745 47.7906 54.9019 47.8299 55.5294C47.8692 56.1568 47.9085 56.7843 47.9085 57.4118V57.4118C47.9085 58.0392 47.9085 58.6667 48.2226 59.1372C48.3797 59.451 48.5368 60.0784 48.3797 60.7059C48.2226 61.4902 47.7514 61.9608 47.123 61.9608H46.9659C46.3375 61.9608 45.7092 61.4902 45.5521 60.8627C45.395 60.3921 45.395 59.7647 45.395 59.2941V58.9804C45.0808 53.9608 44.9237 48.6274 44.9237 42.8235V42.8233C44.9237 40.1567 44.9237 37.3333 45.0808 34.6667C43.5099 35.7647 41.4677 38.1176 40.0539 39.8431C39.5826 40.3137 39.4255 40.9412 39.4255 41.4118C38.6401 47.8431 37.5405 53.8039 35.9695 59.451C35.8455 59.8535 35.7215 60.2744 35.5938 60.7076L35.5937 60.7079L35.5937 60.7079C35.0747 62.4691 34.4957 64.4336 33.6132 66.1961L33.6131 66.1962C33.1419 67.1373 32.6706 68.0784 31.8852 68.8627C31.2568 69.647 30.4714 69.9608 29.6859 69.9608H29.5288C28.7434 69.9608 28.115 69.3333 27.4866 68.549C26.5441 67.1372 26.387 65.4118 26.387 64C26.387 61.1765 26.8583 58.1961 28.115 54.7451C29.5288 50.8235 31.571 46.902 34.3986 42.8235C34.6938 42.4109 34.9668 41.9983 35.2342 41.594L35.2343 41.5939L35.2343 41.5939L35.2343 41.5938L35.2343 41.5938L35.2344 41.5938L35.2344 41.5937L35.2345 41.5936C35.6787 40.9222 36.1077 40.2737 36.5979 39.6863C37.0692 39.2157 37.2263 38.7451 37.2263 38.1176C37.5405 33.2549 37.5405 29.3333 37.3834 25.5686C37.3834 25.4276 37.3516 25.2549 37.3167 25.0647C37.2739 24.8318 37.2263 24.5728 37.2263 24.3137V23.6863C37.1292 23.7832 37.0921 23.9401 37.0409 24.1569L37.0408 24.1569C37.0092 24.2909 36.9721 24.4477 36.9121 24.6274C36.9121 24.7843 36.8728 24.9412 36.8335 25.098C36.7943 25.2549 36.755 25.4118 36.755 25.5686C36.755 25.6471 36.7157 25.7647 36.6765 25.8823C36.6372 26 36.5979 26.1176 36.5979 26.1961C36.2837 27.451 35.9695 28.549 35.6554 29.4902C34.8699 31.8431 34.0845 33.7255 33.1419 35.6078C32.8277 36.3921 32.3565 37.0196 31.8852 37.4902C31.2568 38.1176 30.6285 38.4314 30.0001 38.2745C29.5288 38.1176 28.9005 37.8039 28.5863 37.0196C28.3848 36.6173 28.3126 36.2796 28.2452 35.9649C28.2075 35.7888 28.1714 35.6199 28.115 35.451C27.8008 34.0392 27.8008 32.4706 27.8008 30.7451C27.8008 29.4902 27.8008 28.0784 27.9579 26.8235L28.115 25.2549C28.115 25.1765 28.1543 25.0588 28.1935 24.9412L28.1936 24.9411C28.2328 24.8235 28.2721 24.7059 28.2721 24.6274C28.2721 24.1569 28.5863 23.6863 28.9005 23.5294C29.2146 23.3725 29.5288 23.2157 30.0001 23.3725C30.4714 23.5294 31.2568 24 30.9426 25.2549C30.3143 28.2353 30.1572 31.3725 30.4714 34.6667V34.8235V34.9804C30.5596 34.9804 30.5983 34.8815 30.643 34.7669C30.678 34.6775 30.7167 34.5786 30.7855 34.5098C30.9426 34.5098 30.9426 34.3529 30.9426 34.3529C31.3177 33.6039 31.5808 32.8549 31.8322 32.1392L31.8323 32.1391L31.8324 32.1388C32.0021 31.6556 32.1665 31.1876 32.3565 30.7451C32.435 30.5882 32.4743 30.4314 32.5135 30.2745C32.5528 30.1176 32.5921 29.9608 32.6706 29.8039C32.9848 28.8627 33.299 27.9216 33.4561 26.9804C33.5346 26.6667 33.6132 26.3138 33.6917 25.9608L33.6917 25.9608C33.7703 25.6078 33.8488 25.2549 33.9274 24.9412C34.0112 24.6899 34.0951 24.4287 34.1808 24.162C34.5763 22.9301 35.0097 21.5806 35.6554 20.549C35.9695 20.0784 36.4408 19.451 37.3834 19.6078C38.1688 19.7647 38.6401 20.2353 38.9543 21.0196C39.2977 21.8199 39.3909 22.6202 39.477 23.3597C39.509 23.6349 39.54 23.9016 39.5826 24.1569C39.8968 27.6078 39.8968 31.2157 39.7397 34.5098V35.6078V35.9216C39.8508 36.0325 39.8833 35.9865 39.9484 35.8946C39.9754 35.8566 40.0079 35.8106 40.0539 35.7647L40.211 35.6078C41.1535 34.5098 43.3528 32.3137 44.4525 32C44.531 32 44.6095 31.9608 44.6881 31.9216C44.7666 31.8823 44.8452 31.8431 44.9237 31.8431C44.9237 30.8235 44.963 29.8431 45.0023 28.8627L45.0023 28.8625C45.0415 27.8822 45.0808 26.9019 45.0808 25.8823V25.7255C45.395 14.7451 46.4946 5.96078 47.123 3.60784C47.2042 3.36473 47.2748 3.13209 47.3431 2.90721L47.3432 2.9071L47.3432 2.90705C47.5393 2.26139 47.716 1.67971 48.0655 1.09804C48.5368 0.313725 49.1652 0 49.9506 0ZM35.9695 47.0588C36.1266 46.9019 36.1266 46.7451 36.1266 46.5882C36.2837 46.1176 36.2837 45.8039 36.1266 45.647L35.9695 45.8039C32.6706 50.8235 30.4714 55.3725 29.3717 60.0784C28.9005 61.9608 28.4292 64.3137 28.9005 66.6667V66.9804C28.9005 67.6078 29.0575 68.0784 29.3717 68.0784C29.6446 68.0784 29.799 67.8418 30.0407 67.4713C30.0773 67.4152 30.1159 67.356 30.1572 67.2941C30.1572 67.1372 30.3143 66.9804 30.3143 66.9804C31.1039 65.9291 31.5627 64.6577 31.9679 63.535L31.9681 63.5345L31.9683 63.5338C32.0467 63.3168 32.123 63.1052 32.1994 62.9019C33.9274 58.0392 35.027 52.8627 35.9695 47.0588ZM47.5943 19.7647C47.5943 16.4706 48.5368 9.09804 49.3223 6.11765C49.7935 10.1961 49.3223 15.5294 47.5943 19.7647ZM26.8583 7.52941C26.5441 8.47059 25.6015 8.78431 24.8161 8.47059C24.0306 8.15686 23.5594 7.37255 23.5594 6.27451C23.5594 5.96079 23.5594 5.96079 23.2452 5.80392C21.9902 5.05204 20.5347 4.80071 19.1991 4.57007C18.8629 4.51201 18.5342 4.45525 18.2183 4.39216C14.291 3.92157 10.6779 4.07843 7.37899 5.17647C6.43644 5.4902 5.4939 5.96078 4.86554 6.43137C2.82335 7.84314 2.50917 9.72549 3.7659 12.2353C4.39426 13.4902 5.17972 14.5882 6.27935 15.8431L10.0495 19.6078L11.3063 20.8627L16.4903 26.0392C20.2604 30.1176 22.7739 33.8824 24.0306 37.4902C25.7586 42.1961 25.2874 46.5882 22.6168 50.6667C20.1034 54.7451 16.3332 57.7255 11.6204 59.7647C10.5208 60.2353 9.42117 60.3922 8.32154 60.549H7.85026H7.06481C6.75062 60.3922 6.59353 60.3922 6.43644 60.3922C4.39426 59.9216 2.98044 58.5098 2.66626 56.3137C2.35208 54.7451 2.66626 53.0196 3.45172 51.1373C3.7659 50.1961 4.23717 49.2549 4.70844 48.4706C6.43644 45.3333 9.26408 42.8235 12.563 41.098C13.3484 40.6274 14.291 40.1569 15.2335 40.6274C15.7048 40.9412 16.1761 41.4118 16.1761 42.0392C16.1761 42.9804 15.3906 43.2941 14.7623 43.451L14.7622 43.451C14.6052 43.6078 14.6052 43.6078 14.4481 43.6078C14.0554 43.7647 13.6626 43.9608 13.2699 44.1569C12.8772 44.3529 12.4844 44.549 12.0917 44.7059C10.5208 45.6471 9.10699 46.7451 8.16444 48C7.06481 49.4118 6.12226 51.1373 5.4939 53.0196C5.17972 53.8039 5.02263 54.7451 5.02263 55.6863C5.02263 56.6274 5.33681 57.2549 5.80808 57.7255C6.27935 58.1961 7.06481 58.3529 7.85026 58.1961H8.16444C8.47863 58.1961 8.9499 58.1961 9.26408 58.0392C14.9194 56 19.0037 52.3922 21.3601 47.3725C21.7178 46.5392 21.8945 45.7058 22.0275 45.0782C22.0698 44.8788 22.1077 44.7003 22.1455 44.549C23.0881 38.4314 19.475 33.2549 15.7048 29.1765C14.5528 27.9216 13.2612 26.6667 11.9695 25.4118C11.3237 24.7843 10.6779 24.1569 10.0495 23.5294L9.42117 22.902C8.69273 22.0707 7.75749 21.1705 6.7981 20.2472L6.79808 20.2472L6.79805 20.2471C6.30918 19.7766 5.81404 19.3001 5.33681 18.8235C4.23717 17.7255 3.29463 16.6275 2.35208 15.3725C1.56663 14.2745 1.09535 13.3333 0.624079 12.2353C-0.475557 9.2549 -0.161373 6.7451 1.88081 4.86275C2.66626 4.07843 3.92299 3.45098 5.33681 2.82353C8.63572 1.72549 12.0917 1.2549 16.1761 1.56863C18.6895 1.72549 21.3601 2.19608 23.7164 3.13726C24.5019 3.45098 25.2874 3.76471 26.0728 4.54902C27.0154 5.33333 27.3295 6.43137 26.8583 7.52941ZM68.8016 18.5098C69.587 18.5098 70.0583 18.0392 70.0583 17.2549C70.0583 16.6274 69.2728 16 68.4874 16C67.859 16 67.2306 16.4706 67.2306 17.098C67.2306 17.8823 68.0161 18.5098 68.8016 18.5098ZM86.2386 30.7451C86.5528 30.2745 87.0241 29.9608 87.4954 30.1176C87.9666 30.2745 88.2808 30.5882 88.1237 30.7451C88.2808 31.2157 88.2808 31.6863 87.9666 32.1569L87.0241 33.5686L86.5528 34.3529C85.6103 35.7647 84.1964 37.6471 82.4685 39.2157C82.3038 39.339 82.1391 39.4731 81.9716 39.6095C81.4999 39.9936 81.0059 40.3959 80.4263 40.6274C80.3185 40.6544 80.2153 40.6813 80.1151 40.7074C79.6316 40.8335 79.2188 40.9412 78.6983 40.9412C78.0699 40.9412 77.5986 40.7843 76.9703 40.4706C75.7135 39.8431 74.771 38.4314 74.2997 36.7059L74.2997 36.7058C74.1426 36.0784 73.9855 35.451 73.9855 34.8235C72.8859 36.2353 71.6292 37.6471 70.3725 38.902C69.7441 39.5294 69.1157 40.1569 68.4874 40.4706C67.859 40.7843 67.2306 40.9412 66.7594 40.9412C66.4452 40.9412 66.2881 40.9412 65.9739 40.7843C65.1885 40.4706 64.5601 39.8431 64.2459 38.902C64.2459 38.7451 64.2066 38.5882 64.1674 38.4314C64.1281 38.2745 64.0888 38.1176 64.0888 37.9608C63.9317 37.8039 63.9317 37.6471 63.9317 37.4902C63.7746 36.8627 63.6175 33.8824 63.9317 31.5294C63.9317 31.3726 63.971 31.1767 64.0102 30.9807L64.0102 30.9805L64.0103 30.9804C64.0495 30.7843 64.0888 30.5882 64.0888 30.4314C62.5179 30.7451 60.6328 30.4314 59.3761 28.8627V29.6471V29.9608V32C59.3761 33.4118 59.219 34.6667 59.0619 35.9216C58.7477 37.9608 58.4336 39.8431 57.8052 41.4118C57.7909 41.4475 57.7755 41.4862 57.7592 41.5275L57.7589 41.5283C57.417 42.3929 56.6263 44.3922 54.9776 44.3922H54.8205C53.5637 44.3922 52.9354 43.451 52.6212 42.6667C52.307 42.0392 51.9928 41.2549 51.8357 40.6274C51.3645 39.0588 51.0503 37.1765 50.8932 34.9804C50.7361 33.8824 50.7361 32.7844 50.7361 31.5295V31.5294V31.5294C50.7361 28.549 50.7361 24.9412 51.3645 21.3333C51.5215 20.7059 51.6786 20.2353 51.9928 19.9216C52.6212 19.2941 53.4066 19.1373 54.1921 19.6078C54.5063 19.9216 54.8205 20.2353 54.8205 20.549C54.9776 20.8627 54.8205 21.3333 54.5063 21.6471C54.5063 21.8039 54.5063 21.8039 54.3492 21.9608L54.1921 22.1176C54.1921 22.1961 54.1528 22.2745 54.1136 22.3529C54.0743 22.4314 54.035 22.5098 54.035 22.5882C54.035 22.8235 53.9957 23.0588 53.9565 23.2941C53.9172 23.5294 53.8779 23.7647 53.8779 24V24.4706C53.5637 28.549 53.4066 32 53.7208 35.2941C53.8779 37.3333 54.035 38.902 54.5063 40.4706V40.7843C54.5063 41.098 54.6634 41.5686 54.8205 41.8824C54.899 41.8039 54.9383 41.7255 54.9776 41.6471C55.0168 41.5686 55.0561 41.4902 55.1346 41.4118L55.6059 40C56.2343 38.1176 56.5485 36.3922 56.5485 34.6667C56.7056 34.0392 56.7056 33.2549 56.7056 32.6274C56.7056 31.6863 56.7448 30.7451 56.7841 29.8039C56.8234 28.8627 56.8626 27.9216 56.8626 26.9804V26.3529C56.7055 25.098 56.7056 23.3725 58.1194 23.2157C59.3761 23.0588 59.6903 23.8431 60.0045 24.6274C60.0045 24.7059 60.0437 24.7451 60.083 24.7843C60.1223 24.8235 60.1616 24.8627 60.1616 24.9412C60.947 26.8235 61.7325 28.0784 62.5179 28.3922C62.9892 28.549 63.4605 28.549 63.9317 28.2353C64.0103 28.2353 64.0496 28.1961 64.0888 28.1569C64.1281 28.1176 64.1674 28.0784 64.2459 28.0784C64.3245 28 64.4423 27.9608 64.5601 27.9216C64.6779 27.8823 64.7957 27.8431 64.8743 27.7647V26.1961C64.7172 25.4118 65.1885 24.6274 65.9739 23.8431C66.4452 23.3725 67.0735 23.3725 67.5448 23.6863C68.0161 23.8431 68.4874 24.3137 68.1732 25.098C67.7019 26.8235 67.3877 28.2353 67.2306 29.4902C66.7594 31.5294 66.4452 33.8824 66.6023 36.2353C66.6023 37.0196 66.6023 37.8039 67.0735 38.5882C67.5448 38.4314 68.0161 38.1176 68.3303 37.6471L68.4743 37.4901C70.1626 35.6515 71.9869 33.6646 73.5143 31.5294C73.6714 31.2941 73.8285 31.098 73.9856 30.9019C74.1426 30.7059 74.2997 30.5098 74.4568 30.2745L74.771 29.9608V29.8039C75.0852 28.549 75.7135 27.2941 76.6561 25.8823C77.2844 25.098 77.9128 24.3137 78.6983 23.8431C79.1695 23.5294 79.7979 23.2157 80.2692 23.2157C81.0546 23.0588 81.8401 23.3725 82.4685 24C83.0968 24.6274 83.411 25.7255 83.0968 26.8235C83.0968 27.1373 82.9397 27.6078 82.7826 27.9216C81.3688 30.902 79.6408 32.7843 77.2844 33.7255C76.8132 33.8823 76.6561 34.1961 76.6561 34.8235C76.6561 35.6078 76.8132 36.3922 77.1274 37.0196C77.4415 37.8039 77.7557 38.2745 78.227 38.4314C78.6983 38.5882 79.1695 38.4314 79.6408 38.2745C80.1121 38.1176 80.5834 37.8039 80.8975 37.4902C82.7826 35.7647 84.1965 34.0392 85.4532 32C85.5634 31.6699 85.7509 31.4169 85.9615 31.1329C86.0511 31.012 86.1449 30.8855 86.2386 30.7451ZM80.7405 25.8823H80.5834C80.4263 25.8823 80.1121 26.0392 79.955 26.1961C78.6983 27.2941 77.7557 29.0196 77.2844 31.2157L77.4415 31.0588C78.8554 29.9608 79.955 28.7059 80.7405 26.9804C80.7405 26.8235 80.7797 26.7059 80.819 26.5882C80.8583 26.4706 80.8975 26.3529 80.8975 26.1961C80.8975 26.0392 80.8975 25.8823 80.7405 25.8823ZM117.186 41.8824C117.186 42.1477 117.176 42.4222 117.167 42.7059C117.137 43.5961 117.104 44.5765 117.343 45.6471C117.343 45.9608 117.657 46.902 118.756 47.2157H119.228C119.856 47.2157 120.327 46.902 120.799 46.4314C121.27 45.8039 121.27 45.3333 121.113 45.0196C120.956 44.7059 120.799 44.3922 120.013 44.2353C119.542 44.0784 119.542 43.9216 119.542 43.6078V40C119.62 38.2745 119.738 36.5098 119.856 34.7451C119.974 32.9804 120.092 31.2157 120.17 29.4902L120.327 26.0392V25.5686V24.7843C120.327 24.1569 120.013 23.6863 119.385 23.5294C118.756 23.3726 118.285 23.6863 117.971 24.3137C117.892 24.4706 117.853 24.6274 117.814 24.7842L117.814 24.7843C117.775 24.9412 117.735 25.098 117.657 25.2549L117.028 27.7647C116.714 29.3333 116.243 30.902 115.772 32.3137C115.143 34.3529 114.515 36.2353 113.73 37.8039C113.73 37.8039 113.73 37.9608 113.572 37.9608C113.494 38.0392 113.455 38.1176 113.415 38.1961C113.376 38.2745 113.337 38.3529 113.258 38.4314V38.2745V38.1176C112.944 34.8235 113.101 31.6863 113.73 28.7059C114.044 27.451 113.258 26.9804 112.787 26.8235C112.316 26.6667 112.002 26.8235 111.687 26.9804C111.373 27.1373 111.059 27.6078 111.059 28.0784C111.059 28.1568 111.02 28.2744 110.98 28.3921L110.98 28.3922L110.98 28.3923C110.941 28.5099 110.902 28.6275 110.902 28.7059L110.745 30.1176C110.588 31.3725 110.588 32.7843 110.588 34.0392V34.0393C110.588 35.7648 110.588 37.3334 110.902 38.7451C110.958 38.914 110.994 39.0828 111.032 39.2589L111.032 39.259C111.099 39.5737 111.172 39.9115 111.373 40.3137C111.687 41.098 112.316 41.4118 112.787 41.5686C113.415 41.7255 114.044 41.4118 114.672 40.7843C115.143 40.3137 115.615 39.6863 115.929 38.902C116.4 37.9608 116.714 37.1765 117.028 36.2353V36.0784C117.028 35.9216 117.186 35.7647 117.186 35.7647V36.7059C117.292 38.0866 117.254 39.2516 117.219 40.3469V40.3471V40.3472V40.3473C117.202 40.8695 117.186 41.3759 117.186 41.8824ZM162.428 32C163.056 32 163.527 32 163.999 32.4706C164.47 32.9412 164.627 33.5686 164.313 33.8824C164.313 34.1961 164.156 34.5098 163.842 34.6667C163.527 34.8235 163.213 34.8235 162.899 34.6667C162.788 34.5557 162.677 34.6017 162.455 34.6936L162.454 34.6937C162.362 34.7317 162.251 34.7776 162.114 34.8235C161.171 35.1373 159.757 35.9216 158.658 36.7059H158.5C158.343 36.8627 158.186 37.0196 157.872 37.1765C157.872 37.3333 157.715 37.3333 157.715 37.3333V37.6471C158.186 39.5294 157.715 41.2549 156.615 42.6667C155.673 43.9216 154.416 44.549 153.159 44.549H153.002H152.845H152.688C151.903 44.3922 151.431 44.0784 151.117 43.451C150.803 42.6667 150.646 41.8824 150.96 40.9412C151.117 40.3137 151.431 39.8431 151.746 39.3726C152.096 38.7895 152.62 38.2931 153.188 37.7545L153.189 37.7544C153.385 37.5685 153.586 37.3777 153.788 37.1765L154.259 36.7059L154.416 36.549L154.73 36.2353L154.573 36.0784C154.314 35.8194 154.102 35.6554 153.911 35.508C153.756 35.3876 153.615 35.2783 153.474 35.1373L152.06 34.1961C151.969 34.2863 151.931 34.3246 151.915 34.3708C151.903 34.4048 151.903 34.4432 151.903 34.5098L150.96 35.9216L150.489 36.7059C149.546 38.1176 148.132 40 146.404 41.5686C146.24 41.692 146.075 41.8261 145.908 41.9625C145.436 42.3465 144.942 42.7489 144.362 42.9804C143.891 43.1373 143.263 43.2941 142.634 43.2941C142.006 43.2941 141.535 43.1373 140.906 42.8235C139.65 42.1961 138.707 40.7843 138.236 39.0588L138.236 39.0586C138.079 38.4312 137.922 37.8039 137.922 37.1765C137.922 36.549 137.922 34.6667 138.55 32.3137C138.864 31.0588 139.492 29.8039 140.435 28.3922L140.435 28.3921C141.063 27.6078 141.692 26.8235 142.477 26.3529C142.948 26.0392 143.577 25.7255 144.048 25.7255C144.991 25.5686 145.776 25.8824 146.404 26.5098C147.033 27.1373 147.347 28.2353 147.033 29.3333C147.033 29.6471 146.876 30.1176 146.719 30.4314C145.305 33.4118 143.577 35.2941 141.22 36.2353C140.749 36.3922 140.592 36.7059 140.592 37.3333C140.592 38.1176 140.749 38.902 141.063 39.5294C141.378 40.3137 141.692 40.7843 142.163 40.9412C142.634 41.098 143.106 40.9412 143.577 40.7843C144.048 40.6274 144.519 40.3137 144.834 40C146.719 38.2745 148.132 36.549 149.389 34.5098C149.499 34.1797 149.687 33.9267 149.898 33.6427L149.898 33.6426L149.898 33.6422C149.987 33.5215 150.081 33.3952 150.175 33.2549L150.332 33.098C150.018 32.7843 149.703 32.3137 149.389 31.8431C148.761 30.902 148.918 29.8039 149.546 28.8627C149.703 28.549 150.175 28.2353 150.646 27.9216C152.374 26.8235 154.259 26.1961 156.144 26.0392C156.615 26.0392 157.244 26.0392 157.715 26.1961C158.343 26.5098 158.972 26.9804 159.129 27.6078C159.443 28.2353 159.286 29.0196 158.972 29.6471C158.815 29.9608 158.658 30.2745 158.343 30.5882C158.029 30.902 157.715 31.0588 157.401 31.0588C157.087 31.0588 156.772 30.902 156.458 30.5882C155.987 29.9608 155.83 29.3333 156.144 28.7059C154.416 28.8627 153.002 29.3333 151.588 30.2745C151.274 30.4314 151.117 30.5882 150.96 30.7451C150.882 30.8235 150.842 30.8627 150.842 30.902C150.842 30.9412 150.882 30.9804 150.96 31.0588C151.117 31.3725 151.274 31.5294 151.588 31.6863C151.746 31.7647 151.942 31.8824 152.138 32L152.138 32.0001C152.335 32.1177 152.531 32.2353 152.688 32.3137L153.002 32.4706C153.159 32.549 153.277 32.6274 153.395 32.7059C153.513 32.7843 153.631 32.8627 153.788 32.9412C153.945 32.9412 156.144 34.5098 156.615 35.2941C157.872 34.3529 161.485 32.1569 162.428 32ZM144.362 28.549C144.048 28.549 143.891 28.7059 143.734 28.8627C142.477 29.9608 141.535 31.6863 141.063 33.8824L141.22 33.7255C142.634 32.6274 143.734 31.3725 144.519 29.6471C144.519 29.4902 144.559 29.3725 144.598 29.2549C144.637 29.1373 144.676 29.0196 144.676 28.8627C144.676 28.7059 144.676 28.549 144.519 28.549H144.362ZM153.945 41.098C153.631 41.4118 153.474 41.7255 153.316 42.1961C154.416 42.1961 155.673 40.6275 155.83 39.3726V39.2157V39.0588C155.044 39.8431 154.416 40.4706 153.945 41.098ZM124.412 4.39216C123.783 4.07843 123.155 4.2353 122.527 4.70588C122.37 4.78432 122.173 4.86275 121.977 4.94118C121.78 5.01961 121.584 5.09804 121.427 5.17647H121.27C120.17 5.4902 119.071 5.80392 118.285 5.96078C116.871 6.27451 115.458 6.58824 113.73 6.7451C111.844 7.05882 110.274 7.21569 108.074 7.37255H105.561L105.718 7.05883C105.854 6.68408 105.969 6.35373 106.07 6.05974C106.437 5.00006 106.64 4.41275 107.132 3.92157C107.446 3.45098 107.603 2.98039 107.446 2.50981C107.289 2.03922 106.818 1.56863 106.032 1.41177C105.247 1.2549 104.618 1.56863 104.147 2.35294C103.676 3.13726 103.362 4.07843 103.204 4.70588C103.126 5.09804 103.008 5.45098 102.89 5.80392C102.772 6.15686 102.655 6.5098 102.576 6.90196L102.419 7.21569C102.183 7.21569 101.987 7.17647 101.791 7.13726C101.594 7.09804 101.398 7.05883 101.162 7.05883H101.005C99.9055 6.90196 98.8059 6.7451 98.4917 5.64706V5.33333C98.4917 5.17647 98.4524 5.05882 98.4132 4.94118L98.4131 4.94112C98.3739 4.82349 98.3346 4.70586 98.3346 4.54902C98.1775 4.07843 97.7063 3.60785 96.4495 3.92157C95.3499 4.07843 94.7215 4.86275 94.8786 5.80392C94.8786 6.58824 95.3499 7.21569 96.2924 7.84314C97.3921 8.62745 98.8059 9.09804 100.691 9.2549C100.927 9.2549 101.123 9.29412 101.319 9.33333C101.516 9.37255 101.712 9.41177 101.948 9.41177C100.377 15.5294 99.2772 21.6471 98.6488 27.9216C98.3346 27.9216 98.0204 27.9216 97.7063 28.0784C97.0779 28.549 96.9208 29.8039 97.3921 30.5882C97.5492 30.9019 97.8633 31.2157 98.1775 31.5294L98.1775 31.5294V31.6863C97.5492 37.8039 97.0779 44.3922 97.3921 50.9804C97.5492 55.8431 98.0204 61.3333 99.4343 64.6274C101.162 68.7059 104.304 70.7451 108.546 70.7451C109.331 70.7451 110.274 70.7451 111.059 70.5882C113.415 70.1176 115.929 69.3333 118.128 68.0784C120.17 66.9804 123.155 64.3137 124.726 62.7451H120.642C119.542 63.6863 117.5 65.4118 116.557 66.0392C115.876 66.4278 115.135 66.7562 114.445 67.0618C114.021 67.2495 113.617 67.4287 113.258 67.6078C112.708 67.7647 112.198 67.9216 111.687 68.0784C111.177 68.2353 110.666 68.3922 110.116 68.549C108.703 68.8627 107.289 68.8627 106.032 68.549C103.833 68.0784 102.419 65.8824 101.319 61.8039C99.2772 54.1176 99.9055 39.0588 100.534 32.9412V32.6274H100.848C102.105 32.6274 103.362 32.4706 105.09 31.8431C105.09 31.8431 105.247 31.8431 105.404 31.6863C105.733 31.5629 106.106 31.4288 106.485 31.2924C107.551 30.9083 108.669 30.506 109.017 30.2745C109.488 29.9608 109.645 29.6471 109.645 29.0196C109.645 28.549 109.488 28.0784 109.017 27.7647C108.388 27.2941 107.76 27.2941 107.132 27.7647C106.951 27.9453 106.354 28.2298 105.79 28.4986C105.373 28.6968 104.975 28.8865 104.775 29.0196C103.676 29.4902 102.262 29.8039 101.005 29.8039H100.848H100.691L100.848 28.2353V27.6078C101.791 20.8627 102.89 15.0588 104.461 9.56863C106.032 9.56863 107.603 9.56863 109.645 9.2549H110.431C112.002 9.09804 113.258 8.94118 114.829 8.62745H115.3C115.693 8.54902 116.047 8.5098 116.4 8.47059C116.754 8.43137 117.107 8.39216 117.5 8.31373C122.527 7.52941 124.255 7.05882 124.883 6.11765C125.04 5.80392 125.04 5.33333 125.04 5.01961C125.04 4.70588 124.883 4.54902 124.412 4.39216ZM136.036 5.80392C136.351 5.33333 136.822 5.17646 137.45 5.33333C138.079 5.49019 138.236 5.80392 137.922 6.2745V6.74509C137.24 10.6944 136.913 13.1068 136.53 15.9323C136.472 16.3614 136.413 16.8 136.351 17.2549C136.331 17.4287 136.312 17.6049 136.292 17.7837C136.152 19.0576 135.998 20.467 135.722 22.1176C135.695 22.3183 135.669 22.5187 135.642 22.7188C135.041 27.2115 134.459 31.5665 134.308 35.9216V43.6078V44.2353C134.466 44.549 134.466 44.549 134.78 44.7059C135.094 45.0196 135.251 45.4902 135.251 45.6471C135.408 45.9608 135.251 46.4314 135.094 46.5882C134.78 47.0588 134.623 47.0588 134.151 47.0588H133.837C132.895 46.902 132.738 46.1176 132.738 45.8039C132.58 45.0196 132.58 44.3922 132.58 43.7647C132.423 38.5882 132.58 33.5686 132.895 29.6471V29.3333C132.895 29.6471 132.738 29.9608 132.58 30.2745V30.4314C131.324 33.7255 130.067 36.3922 128.81 38.5882C128.496 39.3725 127.868 40.1569 127.239 40.7843C126.454 41.5686 125.668 41.8823 124.726 41.5686C123.94 41.2549 123.312 40.6274 123.155 39.5294C122.866 38.8091 122.975 37.9564 123.117 36.85C123.129 36.7517 123.142 36.6514 123.155 36.549C123.783 33.5686 125.04 30.902 126.925 28.549C127.868 27.451 129.124 26.1961 130.852 25.7255C131.481 25.5686 131.638 25.098 131.795 24.6274C132.895 19.9216 134.623 12.0784 135.251 8.94117C135.33 8.62744 135.408 8.2745 135.487 7.92156C135.565 7.56862 135.644 7.21568 135.722 6.90195V6.58823C135.722 6.2745 135.879 5.96078 136.036 5.80392ZM125.354 39.3725C124.569 35.7647 127.239 29.9608 130.381 28.2353C130.695 30.1176 127.554 37.1765 125.354 39.3725Z" fill="#1C1819"/>
</svg>
